<svg width="24" height="24" viewBox="0 0 24 24" fill="none" xmlns="http://www.w3.org/2000/svg">
<path d="M14.9904 8.75L14.6442 17.75M9.85577 17.75L9.50962 8.75M19.4776 5.54057C19.8196 5.59221 20.1604 5.64747 20.5 5.70629M19.4776 5.54057L18.4098 19.4226C18.3196 20.5948 17.3421 21.5 16.1664 21.5H8.33357C7.15786 21.5 6.18037 20.5948 6.0902 19.4226L5.02235 5.54057M19.4776 5.54057C18.3312 5.36744 17.1715 5.23485 16 5.14432M4 5.70629C4.33957 5.64747 4.68037 5.59221 5.02235 5.54057M5.02235 5.54057C6.16878 5.36744 7.32849 5.23485 8.5 5.14432M16 5.14432V4.22819C16 3.04882 15.0893 2.06423 13.9106 2.02652C13.3592 2.00889 12.8056 2 12.25 2C11.6944 2 11.1408 2.00889 10.5894 2.02652C9.41065 2.06423 8.5 3.04882 8.5 4.22819V5.14432M16 5.14432C14.7626 5.0487 13.512 5 12.25 5C10.988 5 9.73744 5.0487 8.5 5.14432" stroke="#BEB9B4" stroke-width="1.2" stroke-linecap="round" stroke-linejoin="round"/>
</svg>
