<svg width="20" height="20" viewBox="0 0 20 20" fill="none" xmlns="http://www.w3.org/2000/svg">
<path d="M14.0514 4.36389L15.4576 2.95765C16.0678 2.34745 17.0572 2.34745 17.6674 2.95765C18.2775 3.56784 18.2775 4.55716 17.6674 5.16735L8.81849 14.0162C8.37792 14.4568 7.83453 14.7806 7.23741 14.9585L5 15.625L5.66648 13.3876C5.84435 12.7905 6.1682 12.2471 6.60877 11.8065L14.0514 4.36389ZM14.0514 4.36389L16.25 6.56249M15 12.2917V16.25C15 17.2855 14.1605 18.125 13.125 18.125H4.375C3.33947 18.125 2.5 17.2855 2.5 16.25V7.49999C2.5 6.46446 3.33947 5.62499 4.375 5.62499H8.33333" stroke="#BEB9B4" stroke-linecap="round" stroke-linejoin="round"/>
</svg>
