<svg width="24" height="24" viewBox="0 0 24 24" fill="none" xmlns="http://www.w3.org/2000/svg">
<path d="M4.04557 8.22257C3.12247 9.31382 2.41806 10.596 2 12.0015C3.2913 16.338 7.30875 19.5 12.0647 19.5C13.0573 19.5 14.0177 19.3623 14.9279 19.1049M6.29327 6.22763C7.94953 5.13558 9.93335 4.5 12.0656 4.5C16.8216 4.5 20.8391 7.66205 22.1304 11.9985C21.4185 14.3919 19.8762 16.4277 17.8376 17.772M6.29327 6.22763L3.06564 3M6.29327 6.22763L9.94432 9.87868M17.8376 17.772L21.0656 21M17.8376 17.772L14.187 14.1213M14.187 14.1213C14.7299 13.5784 15.0656 12.8284 15.0656 12C15.0656 10.3431 13.7225 9 12.0656 9C11.2372 9 10.4872 9.33579 9.94432 9.87868M14.187 14.1213L9.94432 9.87868" stroke="#BEB9B4" stroke-width="1.2" stroke-linecap="round" stroke-linejoin="round"/>
</svg>
