<svg width="450" height="450" viewBox="0 0 450 450" fill="none" xmlns="http://www.w3.org/2000/svg">
<path d="M380.169 162C382.212 140.886 387.099 120.897 378.459 100.593C362.601 63.3329 314.766 43.5509 277.596 61.1999C258.588 70.1999 242.334 83.3669 221.4 88.1999C164.898 101.241 77.6876 31.7609 46.9346 112.653C36.3776 140.409 40.6346 176.985 59.7236 200.187C65.8526 207.63 73.3406 214.11 77.8766 222.624C90.2876 245.925 72.7196 271.53 64.7996 293.265C45.9896 344.628 116.91 373.05 155.403 378.288C219.033 387 271.521 314.1 334.8 343.8C378.9 364.5 417.6 314.1 409.5 263.7C404.199 230.706 377.361 199.125 379.872 165.501C379.962 164.34 380.061 163.179 380.169 162Z" fill="#FD825D"/>
<path opacity="0.7" d="M380.169 162C382.212 140.886 387.099 120.897 378.459 100.593C362.601 63.3329 314.766 43.5509 277.596 61.1999C258.588 70.1999 242.334 83.3669 221.4 88.1999C164.898 101.241 77.6876 31.7609 46.9346 112.653C36.3776 140.409 40.6346 176.985 59.7236 200.187C65.8526 207.63 73.3406 214.11 77.8766 222.624C90.2876 245.925 72.7196 271.53 64.7996 293.265C45.9896 344.628 116.91 373.05 155.403 378.288C219.033 387 271.521 314.1 334.8 343.8C378.9 364.5 417.6 314.1 409.5 263.7C404.199 230.706 377.361 199.125 379.872 165.501C379.962 164.34 380.061 163.179 380.169 162Z" fill="#FCFCFC"/>
<path d="M77.1922 175.734C94.3556 175.734 108.269 161.82 108.269 144.657C108.269 127.494 94.3556 113.58 77.1922 113.58C60.0289 113.58 46.1152 127.494 46.1152 144.657C46.1152 161.82 60.0289 175.734 77.1922 175.734Z" fill="#FCFCFC" stroke="#212121" stroke-width="0.9" stroke-linecap="round" stroke-linejoin="round"/>
<path d="M74.8797 172.647C92.0431 172.647 105.957 158.734 105.957 141.57C105.957 124.407 92.0431 110.493 74.8797 110.493C57.7164 110.493 43.8027 124.407 43.8027 141.57C43.8027 158.734 57.7164 172.647 74.8797 172.647Z" fill="#FCFCFC" stroke="#212121" stroke-width="0.9" stroke-linecap="round" stroke-linejoin="round"/>
<path d="M74.8787 169.56C90.3371 169.56 102.869 157.029 102.869 141.57C102.869 126.112 90.3371 113.58 74.8787 113.58C59.4202 113.58 46.8887 126.112 46.8887 141.57C46.8887 157.029 59.4202 169.56 74.8787 169.56Z" fill="#212121" stroke="#212121" stroke-width="0.9" stroke-linecap="round" stroke-linejoin="round"/>
<path d="M71.5939 120.528C71.5939 120.528 68.5069 112.806 63.1069 107.406C57.7069 102.006 35.6929 98.5227 35.6929 98.5227C39.2477 101.951 42.4803 105.699 45.3499 109.719C50.3629 116.667 66.9499 132.498 66.9499 132.498C66.9499 132.498 58.8499 125.55 51.5059 124.776C44.1619 124.002 25.6399 127.863 24.5059 127.863C23.3719 127.863 31.4539 130.95 37.2499 133.65C43.0459 136.35 65.4289 138.672 65.4289 138.672C65.4289 138.672 55.7809 141.372 49.2289 143.694C42.6769 146.016 36.4669 162.99 36.4669 162.99C36.4669 162.99 44.9629 155.268 52.2979 153.342C59.6329 151.416 70.0549 147.942 70.0549 147.942C70.0549 147.942 63.4939 155.277 61.9549 160.299C60.4159 165.321 61.5679 176.895 61.5679 176.895C61.5679 176.895 65.0419 166.095 69.2899 161.838C73.5379 157.581 78.1549 150.3 78.1549 150.3C80.2932 153.785 82.2285 157.391 83.9509 161.1C87.0379 167.661 88.9639 177.3 88.9639 177.3C88.9639 177.3 93.9859 166.5 93.5989 161.1C93.2119 155.7 87.4249 146.043 87.4249 146.043C87.4249 146.043 91.2859 143.343 97.0729 145.656C102.86 147.969 112.904 157.626 112.904 157.626C112.904 157.626 110.582 144.882 106.721 139.869C102.86 134.856 86.2639 133.299 86.2639 133.299C86.2639 133.299 95.5339 127.899 101.321 126.738C107.108 125.577 114.821 128.286 114.821 128.286C114.821 128.286 105.947 115.929 98.9989 115.155C92.0509 114.381 81.6289 125.163 81.6289 125.163L84.7249 109.719C85.4899 105.858 83.9509 96.2188 83.9509 96.2188C83.9509 96.2188 79.7029 98.5317 74.6809 105.867C73.2112 107.979 72.1806 110.366 71.6504 112.884C71.1201 115.403 71.1009 118.002 71.5939 120.528Z" fill="#FD825D"/>
<path opacity="0.5" d="M71.5939 120.528C71.5939 120.528 68.5069 112.806 63.1069 107.406C57.7069 102.006 35.6929 98.5227 35.6929 98.5227C39.2477 101.951 42.4803 105.699 45.3499 109.719C50.3629 116.667 66.9499 132.498 66.9499 132.498C66.9499 132.498 58.8499 125.55 51.5059 124.776C44.1619 124.002 25.6399 127.863 24.5059 127.863C23.3719 127.863 31.4539 130.95 37.2499 133.65C43.0459 136.35 65.4289 138.672 65.4289 138.672C65.4289 138.672 55.7809 141.372 49.2289 143.694C42.6769 146.016 36.4669 162.99 36.4669 162.99C36.4669 162.99 44.9629 155.268 52.2979 153.342C59.6329 151.416 70.0549 147.942 70.0549 147.942C70.0549 147.942 63.4939 155.277 61.9549 160.299C60.4159 165.321 61.5679 176.895 61.5679 176.895C61.5679 176.895 65.0419 166.095 69.2899 161.838C73.5379 157.581 78.1549 150.3 78.1549 150.3C80.2932 153.785 82.2285 157.391 83.9509 161.1C87.0379 167.661 88.9639 177.3 88.9639 177.3C88.9639 177.3 93.9859 166.5 93.5989 161.1C93.2119 155.7 87.4249 146.043 87.4249 146.043C87.4249 146.043 91.2859 143.343 97.0729 145.656C102.86 147.969 112.904 157.626 112.904 157.626C112.904 157.626 110.582 144.882 106.721 139.869C102.86 134.856 86.2639 133.299 86.2639 133.299C86.2639 133.299 95.5339 127.899 101.321 126.738C107.108 125.577 114.821 128.286 114.821 128.286C114.821 128.286 105.947 115.929 98.9989 115.155C92.0509 114.381 81.6289 125.163 81.6289 125.163L84.7249 109.719C85.4899 105.858 83.9509 96.2188 83.9509 96.2188C83.9509 96.2188 79.7029 98.5317 74.6809 105.867C73.2112 107.979 72.1806 110.366 71.6504 112.884C71.1201 115.403 71.1009 118.002 71.5939 120.528Z" fill="#212121"/>
<path d="M79.2012 108.774C79.4712 107.667 79.7682 106.56 80.1012 105.471" stroke="#212121" stroke-width="0.45" stroke-linecap="round" stroke-linejoin="round"/>
<path d="M53.4141 108.774C57.0141 111.411 61.5141 115.074 63.8721 118.215C68.1201 124.002 76.6161 136.359 76.6161 136.359C76.3727 128.06 77.0306 119.758 78.5781 111.6" stroke="#212121" stroke-width="0.45" stroke-linecap="round" stroke-linejoin="round"/>
<path d="M48.0508 105.084C48.0508 105.084 49.1758 105.804 50.8588 106.965" stroke="#212121" stroke-width="0.45" stroke-linecap="round" stroke-linejoin="round"/>
<path d="M76.6172 136.359C76.6172 136.359 91.2872 121.689 97.4612 120.528C103.635 119.367 109.044 124.002 109.044 124.002" stroke="#212121" stroke-width="0.45" stroke-linecap="round" stroke-linejoin="round"/>
<path d="M50.399 148.626C46.799 150.894 46.502 152.226 46.502 152.226" stroke="#212121" stroke-width="0.45" stroke-linecap="round" stroke-linejoin="round"/>
<path d="M108.656 149.868C108.656 149.868 106.343 144.072 98.234 141.372C90.125 138.672 77.399 138.285 77.399 138.285C77.399 138.285 59.534 144.135 53 147.186" stroke="#212121" stroke-width="0.45" stroke-linecap="round" stroke-linejoin="round"/>
<path d="M69.5879 136.08C73.9079 137.34 77.3909 138.285 77.3909 138.285" stroke="#212121" stroke-width="0.45" stroke-linecap="round" stroke-linejoin="round"/>
<path d="M42.3984 129.222C46.5924 129.474 51.9924 130.05 54.9984 131.337C57.4464 132.39 62.2704 133.911 66.8244 135.27" stroke="#212121" stroke-width="0.45" stroke-linecap="round" stroke-linejoin="round"/>
<path d="M36.4668 129.024C36.4668 129.024 37.8798 129.024 39.9588 129.105" stroke="#212121" stroke-width="0.45" stroke-linecap="round" stroke-linejoin="round"/>
<path d="M76.6168 140.598C76.6168 140.598 65.8168 156.798 65.0338 160.677C64.5699 162.965 64.3109 165.29 64.2598 167.625" stroke="#212121" stroke-width="0.45" stroke-linecap="round" stroke-linejoin="round"/>
<path d="M81.4238 145.701C83.5028 148.401 85.9958 152.001 87.0398 154.881C88.255 158.395 89.1585 162.009 89.7398 165.681" stroke="#212121" stroke-width="0.45" stroke-linecap="round" stroke-linejoin="round"/>
<path d="M78.1562 141.759C78.1562 141.759 79.0563 142.713 80.2173 144.18" stroke="#212121" stroke-width="0.45" stroke-linecap="round" stroke-linejoin="round"/>
<path d="M66.6907 123.858C66.6907 123.858 64.7017 115.758 65.9347 108.243C67.1677 100.728 83.0347 85.041 83.0347 85.041C82.1528 89.8991 81.716 94.8275 81.7297 99.765C81.7297 108.333 77.4547 130.869 77.4547 130.869C77.4547 130.869 79.9837 120.501 85.4917 115.569C90.9997 110.637 108.307 102.969 109.243 102.312C110.179 101.655 105.4 108.873 102.277 114.453C99.1537 120.033 82.2967 135 82.2967 135C82.2967 135 91.7107 131.562 98.3887 129.6C105.067 127.638 119.989 137.844 119.989 137.844C119.989 137.844 108.586 136.53 101.503 139.239C94.4197 141.948 83.9257 145.206 83.9257 145.206C83.9257 145.206 93.5377 147.339 97.7137 150.516C101.89 153.693 107.722 163.8 107.722 163.8C107.722 163.8 98.5957 157.041 92.6647 156.069C86.7337 155.097 78.6967 151.848 78.6967 151.848C79.0015 155.925 79.5364 159.981 80.2987 163.998C81.6217 171.135 85.6987 180.099 85.6987 180.099C85.6987 180.099 75.3217 174.249 72.4777 169.632C69.6337 165.015 68.7157 153.801 68.7157 153.801C68.7157 153.801 63.9997 153.855 60.6157 159.111C57.2317 164.367 54.7387 178.065 54.7387 178.065C54.7387 178.065 49.1947 166.365 49.4017 160.065C49.6087 153.765 62.1907 142.803 62.1907 142.803C62.1907 142.803 51.5167 143.82 46.1347 146.25C40.7527 148.68 36.0547 155.385 36.0547 155.385C36.0547 155.385 36.0547 140.175 41.2567 135.495C46.4587 130.815 61.2277 133.515 61.2277 133.515L49.7077 122.778C46.8277 120.078 42.4537 111.348 42.4537 111.348C42.4537 111.348 47.2597 110.754 55.6117 113.787C58.0393 114.637 60.2712 115.967 62.1745 117.697C64.0778 119.427 65.6137 121.522 66.6907 123.858Z" fill="#FD825D"/>
<path d="M53.6577 118.746C52.7577 117.999 51.9117 117.279 51.0117 116.577" stroke="#212121" stroke-width="0.45" stroke-linecap="round" stroke-linejoin="round"/>
<path d="M74.5998 103.707C73.2048 107.955 71.6478 113.544 71.6118 117.468C71.5398 124.668 71.8458 139.635 71.8458 139.635C67.2004 132.753 61.8197 126.398 55.7988 120.681" stroke="#212121" stroke-width="0.45" stroke-linecap="round" stroke-linejoin="round"/>
<path d="M76.815 97.5781C76.815 97.5781 76.311 98.8201 75.627 100.737" stroke="#212121" stroke-width="0.45" stroke-linecap="round" stroke-linejoin="round"/>
<path d="M71.8477 139.635C71.8477 139.635 51.3727 136.278 45.6847 138.942C39.9967 141.606 38.3047 148.5 38.3047 148.5" stroke="#212121" stroke-width="0.45" stroke-linecap="round" stroke-linejoin="round"/>
<path d="M100.305 134.307C104.526 134.073 105.534 134.928 105.534 134.928" stroke="#212121" stroke-width="0.45" stroke-linecap="round" stroke-linejoin="round"/>
<path d="M53.703 169.299C53.703 169.299 52.209 163.242 57.213 156.321C62.217 149.4 72.351 141.66 72.351 141.66C72.351 141.66 90.27 135.981 97.353 134.658" stroke="#212121" stroke-width="0.45" stroke-linecap="round" stroke-linejoin="round"/>
<path d="M77.3994 135.315C74.6274 138.852 72.3594 141.66 72.3594 141.66" stroke="#212121" stroke-width="0.45" stroke-linecap="round" stroke-linejoin="round"/>
<path d="M95.4811 113.886C92.2231 116.586 88.1731 120.186 86.4811 122.949C85.1041 125.235 82.0711 129.249 79.1641 133.038" stroke="#212121" stroke-width="0.45" stroke-linecap="round" stroke-linejoin="round"/>
<path d="M100.179 110.259C100.179 110.259 99.0357 111.087 97.3887 112.365" stroke="#212121" stroke-width="0.45" stroke-linecap="round" stroke-linejoin="round"/>
<path d="M74.3223 143.1C74.3223 143.1 92.5653 149.958 95.4363 152.649C97.1483 154.236 98.7145 155.974 100.116 157.842" stroke="#212121" stroke-width="0.45" stroke-linecap="round" stroke-linejoin="round"/>
<path d="M73.3954 150.03C73.2694 153.432 73.3324 157.797 74.1874 160.767C75.2484 164.335 76.6249 167.802 78.3004 171.126" stroke="#212121" stroke-width="0.45" stroke-linecap="round" stroke-linejoin="round"/>
<path d="M73.7461 144.9C73.7461 144.9 73.6021 146.178 73.4941 148.068" stroke="#212121" stroke-width="0.45" stroke-linecap="round" stroke-linejoin="round"/>
<path d="M126.748 165.087H330.751C333.297 165.087 335.74 166.099 337.541 167.9C339.342 169.7 340.354 172.143 340.354 174.69V306.99C340.354 308.369 340.082 309.735 339.554 311.009C339.026 312.284 338.253 313.441 337.277 314.417C336.302 315.392 335.144 316.166 333.87 316.693C332.596 317.221 331.23 317.493 329.851 317.493H127.648C126.268 317.493 124.902 317.221 123.628 316.693C122.354 316.166 121.196 315.392 120.221 314.417C119.245 313.441 118.472 312.284 117.944 311.009C117.416 309.735 117.145 308.369 117.145 306.99V174.69C117.145 172.143 118.156 169.7 119.957 167.9C121.758 166.099 124.201 165.087 126.748 165.087Z" fill="#FCFCFC" stroke="#212121" stroke-width="0.9" stroke-linecap="round" stroke-linejoin="round"/>
<path d="M201.412 180.09H188.848V188.343H201.412V180.09Z" fill="#212121"/>
<path d="M160.703 231.003H149.039V242.577H160.703V231.003Z" fill="#212121"/>
<path d="M212.238 190.323H200.484V201.897H212.238V190.323Z" fill="#212121"/>
<path d="M186.859 180.09H174.295V188.343H186.859V180.09Z" fill="#212121"/>
<path d="M225.971 190.323H214.217V201.897H225.971V190.323Z" fill="#212121"/>
<path d="M215.955 180.09H203.391V188.343H215.955V180.09Z" fill="#212121"/>
<path d="M153.657 217.44H131.553V229.014H153.657V217.44Z" fill="#212121"/>
<path d="M184.762 190.323H173.008V201.897H184.762V190.323Z" fill="#212121"/>
<path d="M147.06 231.003H131.553V242.577H147.06V231.003Z" fill="#212121"/>
<path d="M230.507 180.09H217.943V188.343H230.507V180.09Z" fill="#212121"/>
<path d="M157.285 190.323H145.531V201.897H157.285V190.323Z" fill="#212121"/>
<path d="M157.761 180.09H145.197V188.343H157.761V180.09Z" fill="#212121"/>
<path d="M172.314 180.09H159.75V188.343H172.314V180.09Z" fill="#212121"/>
<path d="M171.018 190.323H159.264V201.897H171.018V190.323Z" fill="#212121"/>
<path d="M198.494 190.323H186.74V201.897H198.494V190.323Z" fill="#212121"/>
<path d="M288.711 180.09H276.146V188.343H288.711V180.09Z" fill="#212121"/>
<path d="M303.255 180.09H290.691V188.343H303.255V180.09Z" fill="#212121"/>
<path d="M294.668 190.323H282.914V201.897H294.668V190.323Z" fill="#212121"/>
<path d="M308.412 190.323H296.658V201.897H308.412V190.323Z" fill="#212121"/>
<path d="M330.147 231.003H312.84V242.577H330.147V231.003Z" fill="#212121"/>
<path d="M317.808 180.09H305.244V188.343H317.808V180.09Z" fill="#212121"/>
<path d="M143.55 190.323H131.553V201.897H143.55V190.323Z" fill="#212121"/>
<path d="M245.062 180.09H232.498V188.343H245.062V180.09Z" fill="#212121"/>
<path d="M259.605 180.09H247.041V188.343H259.605V180.09Z" fill="#212121"/>
<path d="M253.457 190.323H241.703V201.897H253.457V190.323Z" fill="#212121"/>
<path d="M280.936 190.323H269.182V201.897H280.936V190.323Z" fill="#212121"/>
<path d="M239.715 190.323H227.961V201.897H239.715V190.323Z" fill="#212121"/>
<path d="M267.193 190.323H255.439V201.897H267.193V190.323Z" fill="#212121"/>
<path d="M274.158 180.09H261.594V188.343H274.158V180.09Z" fill="#212121"/>
<path d="M256.256 231.003H244.592V242.577H256.256V231.003Z" fill="#212121"/>
<path d="M317.457 217.44H305.793V229.014H317.457V217.44Z" fill="#212121"/>
<path d="M303.803 217.44H292.139V229.014H303.803V217.44Z" fill="#212121"/>
<path d="M310.85 231.003H299.186V242.577H310.85V231.003Z" fill="#212121"/>
<path d="M297.207 231.003H285.543V242.577H297.207V231.003Z" fill="#212121"/>
<path d="M269.9 231.003H258.236V242.577H269.9V231.003Z" fill="#212121"/>
<path d="M283.553 231.003H271.889V242.577H283.553V231.003Z" fill="#212121"/>
<path d="M290.15 217.44H278.486V229.014H290.15V217.44Z" fill="#212121"/>
<path d="M276.506 217.44H264.842V229.014H276.506V217.44Z" fill="#212121"/>
<path d="M330.156 180.09H319.797V188.343H330.156V180.09Z" fill="#212121"/>
<path d="M143.217 180.09H131.553V188.343H143.217V180.09Z" fill="#212121"/>
<path d="M330.156 244.557H131.553V256.59H330.156V244.557Z" fill="#212121"/>
<path d="M330.148 190.323H310.393V201.897H330.148V190.323Z" fill="#212121"/>
<path d="M330.146 217.44H319.436V229.014H330.146V217.44Z" fill="#212121"/>
<path d="M316.143 215.37H314.154V203.886H302.49V215.37H300.51V203.886H288.846V215.37H286.857V203.886H275.193V215.37H273.204V203.886H261.54V215.37H259.56V203.886H247.896V215.37H245.907V203.886H234.243V215.37H232.254V203.886H220.59V215.37H218.61V203.886H206.946V215.37H204.957V203.886H193.293V215.37H191.304V203.886H179.64V215.37H177.66V203.886H165.996V215.37H164.007V203.886H152.343V215.37H150.354V203.886H131.553V215.46H330.147V203.886H316.143V215.37Z" fill="#212121"/>
<path d="M221.904 217.44H210.24V229.014H221.904V217.44Z" fill="#212121"/>
<path d="M262.853 217.44H251.189V229.014H262.853V217.44Z" fill="#212121"/>
<path d="M194.607 217.44H182.943V229.014H194.607V217.44Z" fill="#212121"/>
<path d="M201.654 231.003H189.99V242.577H201.654V231.003Z" fill="#212121"/>
<path d="M208.25 217.44H196.586V229.014H208.25V217.44Z" fill="#212121"/>
<path d="M180.953 217.44H169.289V229.014H180.953V217.44Z" fill="#212121"/>
<path d="M174.357 231.003H162.693V242.577H174.357V231.003Z" fill="#212121"/>
<path d="M188.002 231.003H176.338V242.577H188.002V231.003Z" fill="#212121"/>
<path d="M235.557 217.44H223.893V229.014H235.557V217.44Z" fill="#212121"/>
<path d="M242.603 231.003H230.939V242.577H242.603V231.003Z" fill="#212121"/>
<path d="M249.201 217.44H237.537V229.014H249.201V217.44Z" fill="#212121"/>
<path d="M215.307 231.003H203.643V242.577H215.307V231.003Z" fill="#212121"/>
<path d="M228.951 231.003H217.287V242.577H228.951V231.003Z" fill="#212121"/>
<path d="M167.301 217.44H155.637V229.014H167.301V217.44Z" fill="#212121"/>
<path d="M353.096 82.2871H103.203C101.977 82.2881 100.768 82.5708 99.6695 83.1136C98.5707 83.6563 97.6115 84.4444 96.8659 85.417C96.1204 86.3896 95.6085 87.5206 95.3698 88.7226C95.1312 89.9247 95.1721 91.1655 95.4895 92.3491L113.76 160.371C114.215 162.069 115.217 163.57 116.612 164.64C118.006 165.711 119.715 166.292 121.473 166.293H146.979V171H310.5V166.32H334.8C336.557 166.319 338.266 165.738 339.66 164.667C341.055 163.597 342.057 162.096 342.513 160.398L360.783 92.3761C361.104 91.1929 361.149 89.9515 360.915 88.748C360.68 87.5446 360.171 86.4113 359.428 85.4359C358.685 84.4605 357.727 83.6692 356.629 83.1232C355.532 82.5772 354.323 82.2911 353.096 82.2871Z" fill="#212121" stroke="#212121" stroke-width="0.9" stroke-linecap="round" stroke-linejoin="round"/>
<path d="M324.838 160.29H131.464L112.123 90.6934H344.17L324.838 160.29Z" fill="#FD825D" stroke="#212121" stroke-width="0.9" stroke-linecap="round" stroke-linejoin="round"/>
<path d="M145.485 224.541C144.909 225.351 144.342 226.197 143.775 227.088" stroke="#FCFCFC" stroke-width="0.9" stroke-linecap="round" stroke-linejoin="round"/>
<path d="M154.9 213.705C152.392 216.03 150.072 218.548 147.961 221.238" stroke="#FCFCFC" stroke-width="0.9" stroke-linecap="round" stroke-linejoin="round"/>
<path d="M144.685 218.484C142.226 221.933 139.998 225.541 138.016 229.284" stroke="#FCFCFC" stroke-width="0.9" stroke-linecap="round" stroke-linejoin="round"/>
<path d="M208.161 238.275C207.594 239.085 207.018 239.931 206.451 240.813" stroke="#FCFCFC" stroke-width="0.9" stroke-linecap="round" stroke-linejoin="round"/>
<path d="M217.575 227.439C215.071 229.766 212.754 232.284 210.645 234.972" stroke="#FCFCFC" stroke-width="0.9" stroke-linecap="round" stroke-linejoin="round"/>
<path d="M207.368 232.2C204.911 235.669 202.683 239.295 200.699 243.054" stroke="#FCFCFC" stroke-width="0.9" stroke-linecap="round" stroke-linejoin="round"/>
<path d="M298 216C297.181 215.442 296.317 214.884 295.426 214.326" stroke="#FCFCFC" stroke-width="0.9" stroke-linecap="round" stroke-linejoin="round"/>
<path d="M308.979 225.252C306.612 222.787 304.057 220.509 301.338 218.439" stroke="#FCFCFC" stroke-width="0.9" stroke-linecap="round" stroke-linejoin="round"/>
<path d="M304.046 215.1C300.543 212.695 296.887 210.521 293.102 208.593" stroke="#FCFCFC" stroke-width="0.9" stroke-linecap="round" stroke-linejoin="round"/>
<path d="M205.425 271.8C204.957 275.184 204.255 279.9 203.553 282.699" stroke="#212121" stroke-width="0.9" stroke-linecap="round" stroke-linejoin="round"/>
<path d="M205.947 267.687C205.947 267.687 205.875 268.326 205.74 269.361" stroke="#212121" stroke-width="0.9" stroke-linecap="round" stroke-linejoin="round"/>
<path d="M208.35 277.29C207.367 280.568 206.165 283.777 204.75 286.893" stroke="#212121" stroke-width="0.9" stroke-linecap="round" stroke-linejoin="round"/>
<path d="M253.35 282.087C253.35 282.087 253.953 289.89 258.147 294.093" stroke="#212121" stroke-width="0.9" stroke-linecap="round" stroke-linejoin="round"/>
<path d="M252.748 289.89C252.748 289.89 254.548 295.29 258.148 297.693" stroke="#212121" stroke-width="0.9" stroke-linecap="round" stroke-linejoin="round"/>
<g style="mix-blend-mode:multiply">
<path d="M130.5 331.596C130.5 331.596 134.496 328.383 134.496 300.762C134.496 273.141 139.095 252.963 144.765 244.116C150.435 235.269 155.736 231.723 158.22 231.723C160.704 231.723 158.922 234.909 155.385 239.508C151.848 244.107 148.662 246.591 147.24 252.261C145.818 257.931 145.827 265.005 147.6 264.294C149.373 263.583 152.199 249.426 154.674 244.116C157.149 238.806 163.179 232.074 166.716 228.888C170.253 225.702 178.047 216.144 181.584 218.619C185.121 221.094 183.006 224.64 180.882 226.053C178.758 227.466 170.253 235.953 166.365 241.281C162.477 246.609 159.993 260.046 162.117 260.397C164.241 260.748 170.613 240.93 174.15 236.682C177.687 232.434 191.853 220.743 195.039 220.392C198.225 220.041 198.585 224.991 195.75 227.475C192.915 229.959 183.357 240.57 180.171 246.942C176.985 253.314 175.563 265.005 178.371 262.17C181.179 259.335 185.805 247.653 189.702 243.756C193.599 239.859 205.281 227.475 208.116 228.888C210.951 230.301 210.24 233.847 207.765 236.322C205.29 238.797 195.723 252.261 193.248 259.335C190.773 266.409 187.929 286.245 189.351 283.419C190.773 280.593 195.372 266.067 197.847 260.019C200.322 253.971 205.281 251.172 205.992 253.998C206.703 256.824 205.281 258.246 203.508 264.627C201.735 271.008 201.708 288.027 196.434 297.549C191.16 307.071 169.992 327.447 167.166 334.521C165.119 339.394 162.675 344.09 159.858 348.561" fill="#FD825D"/>
</g>
<g style="mix-blend-mode:multiply">
<path d="M327.195 333.99C327.195 333.99 323.1 328.383 323.1 300.762C323.1 273.141 318.492 252.963 312.831 244.116C307.17 235.269 301.851 231.723 299.376 231.723C296.901 231.723 298.665 234.909 302.211 239.508C305.757 244.107 308.934 246.591 310.311 252.261C311.688 257.931 311.733 265.005 309.96 264.294C308.187 263.583 305.361 249.426 302.877 244.116C300.393 238.806 294.381 232.074 290.844 228.888C287.307 225.702 279.513 216.144 275.967 218.619C272.421 221.094 274.554 224.64 276.678 226.053C278.802 227.466 287.298 235.953 291.195 241.281C295.092 246.609 297.567 260.046 295.443 260.397C293.319 260.748 286.974 240.93 283.437 236.7C279.9 232.47 265.725 220.761 262.539 220.41C259.353 220.059 259.002 225.009 261.837 227.493C264.672 229.977 274.23 240.588 277.416 246.96C280.602 253.332 282.015 265.023 279.216 262.188C276.417 259.353 271.782 247.671 267.894 243.774C264.006 239.877 252.315 227.493 249.48 228.906C246.645 230.319 247.356 233.865 249.831 236.34C252.306 238.815 261.873 252.279 264.348 259.353C266.823 266.427 269.658 286.263 268.245 283.437C266.832 280.611 262.224 266.085 259.749 260.037C257.274 253.989 252.315 251.19 251.604 254.016C250.893 256.842 252.315 258.264 254.079 264.645C255.843 271.026 255.879 288.045 261.162 297.567C266.445 307.089 287.01 325.674 289.845 332.757C292.68 339.84 297.81 351 297.81 351" fill="#FD825D"/>
</g>
<path d="M129.15 338.4C129.15 338.4 134.46 321.057 134.46 293.4C134.46 265.743 139.059 245.601 144.729 236.754C150.399 227.907 155.7 224.361 158.184 224.361C160.668 224.361 158.886 227.547 155.349 232.146C151.812 236.745 148.626 239.229 147.204 244.89C145.782 250.551 145.791 257.643 147.564 256.932C149.337 256.221 152.163 242.064 154.638 236.754C157.113 231.444 163.143 224.712 166.68 221.526C170.217 218.34 178.011 208.782 181.548 211.257C185.085 213.732 182.97 217.278 180.846 218.691C178.722 220.104 170.217 228.591 166.329 233.919C162.441 239.247 159.957 252.684 162.081 253.035C164.205 253.386 170.577 233.568 174.114 229.311C177.651 225.054 191.817 213.381 195.003 213.03C198.189 212.679 198.549 217.629 195.714 220.113C192.879 222.597 183.321 233.208 180.135 239.58C176.949 245.952 175.527 257.643 178.335 254.808C181.143 251.973 185.769 240.291 189.666 236.394C193.563 232.497 205.245 220.113 208.08 221.526C210.915 222.939 210.204 226.485 207.729 228.96C205.254 231.435 195.687 244.89 193.212 251.973C190.737 259.056 187.893 278.883 189.315 276.048C190.737 273.213 195.336 258.705 197.811 252.648C200.286 246.591 205.245 243.792 205.956 246.627C206.667 249.462 205.245 250.875 203.472 257.247C201.699 263.619 201.672 280.647 196.398 290.178C191.124 299.709 170.55 325.584 167.715 332.667C164.88 339.75 158.508 355.329 158.508 355.329" fill="#FCFCFC"/>
<path d="M129.15 338.4C129.15 338.4 134.46 321.057 134.46 293.4C134.46 265.743 139.059 245.601 144.729 236.754C150.399 227.907 155.7 224.361 158.184 224.361C160.668 224.361 158.886 227.547 155.349 232.146C151.812 236.745 148.626 239.229 147.204 244.89C145.782 250.551 145.791 257.643 147.564 256.932C149.337 256.221 152.163 242.064 154.638 236.754C157.113 231.444 163.143 224.712 166.68 221.526C170.217 218.34 178.011 208.782 181.548 211.257C185.085 213.732 182.97 217.278 180.846 218.691C178.722 220.104 170.217 228.591 166.329 233.919C162.441 239.247 159.957 252.684 162.081 253.035C164.205 253.386 170.577 233.568 174.114 229.311C177.651 225.054 191.817 213.381 195.003 213.03C198.189 212.679 198.549 217.629 195.714 220.113C192.879 222.597 183.321 233.208 180.135 239.58C176.949 245.952 175.527 257.643 178.335 254.808C181.143 251.973 185.769 240.291 189.666 236.394C193.563 232.497 205.245 220.113 208.08 221.526C210.915 222.939 210.204 226.485 207.729 228.96C205.254 231.435 195.687 244.89 193.212 251.973C190.737 259.056 187.893 278.883 189.315 276.048C190.737 273.213 195.336 258.705 197.811 252.648C200.286 246.591 205.245 243.792 205.956 246.627C206.667 249.462 205.245 250.875 203.472 257.247C201.699 263.619 201.672 280.647 196.398 290.178C191.124 299.709 170.55 325.584 167.715 332.667C164.88 339.75 158.508 355.329 158.508 355.329" stroke="#212121" stroke-width="0.9" stroke-linecap="round" stroke-linejoin="round"/>
<path d="M328.402 338.4C328.402 338.4 323.092 321.057 323.092 293.4C323.092 265.743 318.484 245.601 312.823 236.754C307.162 227.907 301.843 224.361 299.368 224.361C296.893 224.361 298.657 227.547 302.203 232.146C305.749 236.745 308.926 239.229 310.303 244.89C311.68 250.551 311.725 257.643 309.952 256.932C308.179 256.221 305.353 242.064 302.869 236.754C300.385 231.444 294.373 224.712 290.836 221.526C287.299 218.34 279.505 208.782 275.959 211.257C272.413 213.732 274.546 217.278 276.67 218.691C278.794 220.104 287.29 228.591 291.187 233.919C295.084 239.247 297.559 252.684 295.435 253.035C293.311 253.386 286.939 233.568 283.402 229.311C279.865 225.054 265.69 213.381 262.504 213.03C259.318 212.679 258.967 217.629 261.802 220.113C264.637 222.597 274.195 233.208 277.381 239.58C280.567 245.952 281.98 257.643 279.181 254.808C276.382 251.973 271.747 240.291 267.859 236.394C263.971 232.497 252.28 220.113 249.445 221.526C246.61 222.939 247.321 226.485 249.796 228.96C252.271 231.435 261.838 244.89 264.313 251.973C266.788 259.056 269.623 278.883 268.21 276.048C266.797 273.213 262.189 258.705 259.714 252.648C257.239 246.591 252.28 243.792 251.569 246.627C250.858 249.462 252.28 250.875 254.044 257.247C255.808 263.619 255.844 280.647 261.127 290.178C266.41 299.709 286.975 325.584 289.81 332.667C292.645 339.75 299.017 355.329 299.017 355.329" fill="#FCFCFC"/>
<path d="M328.402 338.4C328.402 338.4 323.092 321.057 323.092 293.4C323.092 265.743 318.484 245.601 312.823 236.754C307.162 227.907 301.843 224.361 299.368 224.361C296.893 224.361 298.657 227.547 302.203 232.146C305.749 236.745 308.926 239.229 310.303 244.89C311.68 250.551 311.725 257.643 309.952 256.932C308.179 256.221 305.353 242.064 302.869 236.754C300.385 231.444 294.373 224.712 290.836 221.526C287.299 218.34 279.505 208.782 275.959 211.257C272.413 213.732 274.546 217.278 276.67 218.691C278.794 220.104 287.29 228.591 291.187 233.919C295.084 239.247 297.559 252.684 295.435 253.035C293.311 253.386 286.939 233.568 283.402 229.311C279.865 225.054 265.69 213.381 262.504 213.03C259.318 212.679 258.967 217.629 261.802 220.113C264.637 222.597 274.195 233.208 277.381 239.58C280.567 245.952 281.98 257.643 279.181 254.808C276.382 251.973 271.747 240.291 267.859 236.394C263.971 232.497 252.28 220.113 249.445 221.526C246.61 222.939 247.321 226.485 249.796 228.96C252.271 231.435 261.838 244.89 264.313 251.973C266.788 259.056 269.623 278.883 268.21 276.048C266.797 273.213 262.189 258.705 259.714 252.648C257.239 246.591 252.28 243.792 251.569 246.627C250.858 249.462 252.28 250.875 254.044 257.247C255.808 263.619 255.844 280.647 261.127 290.178C266.41 299.709 286.975 325.584 289.81 332.667C292.645 339.75 299.017 355.329 299.017 355.329" stroke="#212121" stroke-width="0.9" stroke-linecap="round" stroke-linejoin="round"/>
<path d="M106.74 392.4H160.74C161.442 389.7 162.324 386.676 163.44 383.4C167.688 370.674 181.44 354.762 181.44 354.762C171.584 346.081 160.002 339.585 147.456 335.7C126.756 329.328 111.6 331.2 111.6 331.2C114.39 342.703 114.697 354.669 112.5 366.3C109.8 379.404 108 387.693 106.74 392.4Z" fill="#212121" stroke="#212121" stroke-width="0.9" stroke-linecap="round" stroke-linejoin="round"/>
<path d="M296.459 392.4H352.565C350.765 387.738 346.877 377.613 342.989 367.488C337.679 353.7 339.803 335.142 337.679 335.142C335.555 335.142 311.696 333.549 300.032 337.257C288.368 340.965 275.102 351.576 275.102 351.576C281.107 358.554 286.269 366.214 290.483 374.4C293.191 380.138 295.197 386.182 296.459 392.4Z" fill="#212121" stroke="#212121" stroke-width="0.9" stroke-linecap="round" stroke-linejoin="round"/>
<path d="M140.472 342.18C140.085 340.65 134.325 342.954 134.325 342.954C134.325 342.954 136.251 335.664 133.182 335.664C130.113 335.664 129.726 341.064 129.726 341.064C129.726 341.064 123.966 338.769 123.966 342.216C123.966 345.663 127.8 345.6 127.8 345.6C127.8 345.6 123.192 351.36 126.648 352.503C130.104 353.646 132.399 349.434 132.399 349.434C132.399 349.434 134.703 353.277 137.799 351.738C140.895 350.199 138.564 346.752 138.564 346.752C138.564 346.752 140.85 343.719 140.472 342.18ZM132.795 347.94C132.505 347.876 132.24 347.731 132.029 347.522C131.818 347.313 131.67 347.049 131.603 346.76C131.536 346.471 131.551 346.169 131.648 345.888C131.745 345.608 131.919 345.36 132.151 345.174C132.382 344.989 132.661 344.872 132.956 344.838C133.251 344.804 133.55 344.854 133.817 344.982C134.085 345.11 134.311 345.312 134.469 345.563C134.627 345.814 134.712 346.104 134.712 346.401C134.647 346.853 134.413 347.263 134.057 347.549C133.701 347.835 133.25 347.974 132.795 347.94ZM148.914 385.2C148.527 383.67 142.767 385.974 142.767 385.974C142.767 385.974 144.693 378.684 141.615 378.684C138.537 378.684 138.168 384.084 138.168 384.084C138.168 384.084 132.408 381.78 132.408 385.227C132.408 388.674 136.251 388.683 136.251 388.683C136.251 388.683 131.643 394.443 135.099 395.595C138.555 396.747 140.85 392.517 140.85 392.517C140.85 392.517 143.154 396.36 146.25 394.821C149.346 393.282 147.015 389.835 147.015 389.835C147.015 389.835 149.292 386.694 148.914 385.2ZM141.237 390.96C140.947 390.896 140.682 390.751 140.471 390.542C140.26 390.333 140.112 390.069 140.045 389.78C139.978 389.491 139.993 389.189 140.09 388.908C140.187 388.628 140.361 388.38 140.593 388.194C140.824 388.009 141.103 387.892 141.398 387.858C141.693 387.824 141.992 387.874 142.259 388.002C142.527 388.13 142.753 388.332 142.911 388.583C143.069 388.834 143.154 389.124 143.154 389.421C143.089 389.869 142.853 390.275 142.496 390.554C142.139 390.832 141.687 390.962 141.237 390.915V390.96ZM115.137 390.96C114.75 389.421 108.999 391.725 108.999 391.725C108.999 391.725 110.916 384.435 107.847 384.435C104.778 384.435 104.391 389.835 104.391 389.835C104.391 389.835 98.6309 387.531 98.6309 390.987C98.6309 394.443 102.474 394.443 102.474 394.443C102.474 394.443 97.8659 400.194 101.322 401.346C104.778 402.498 107.073 398.277 107.073 398.277C107.073 398.277 109.377 402.111 112.473 400.581C115.569 399.051 113.247 395.595 113.247 395.595C113.247 395.595 115.524 392.445 115.146 390.915L115.137 390.96ZM107.46 396.711C107.17 396.647 106.904 396.501 106.693 396.292C106.482 396.083 106.334 395.818 106.267 395.529C106.2 395.239 106.217 394.937 106.314 394.656C106.412 394.375 106.587 394.128 106.819 393.943C107.052 393.757 107.332 393.641 107.627 393.608C107.922 393.575 108.221 393.627 108.488 393.756C108.756 393.886 108.981 394.088 109.138 394.34C109.296 394.592 109.378 394.884 109.377 395.181C109.31 395.626 109.074 396.028 108.719 396.305C108.364 396.581 107.917 396.71 107.469 396.666L107.46 396.711ZM156.96 361.026H161.181C164.25 361.026 166.167 364.482 166.167 364.482C159.651 366.354 156.969 360.981 156.969 360.981L156.96 361.026ZM152.739 390.96H156.96C160.029 390.96 161.946 394.416 161.946 394.416C155.43 396.288 152.748 390.915 152.748 390.915L152.739 390.96ZM115.911 385.2H120.132C123.201 385.2 125.118 388.656 125.118 388.656C118.593 390.528 115.911 385.2 115.911 385.2ZM136.314 358.119L138.78 361.548C140.58 364.05 138.879 367.614 138.879 367.614C133.515 363.393 136.314 358.074 136.314 358.074V358.119ZM115.2 369.585L117.126 365.832C118.539 363.132 122.481 362.97 122.481 362.97C121.158 369.648 115.2 369.585 115.2 369.585Z" fill="#FCFCFC"/>
<path d="M321.202 349.47C320.815 347.94 315.055 350.244 315.055 350.244C315.055 350.244 316.981 342.954 313.912 342.954C310.843 342.954 310.456 348.354 310.456 348.354C310.456 348.354 304.696 346.059 304.696 349.506C304.696 352.953 308.539 352.962 308.539 352.962C308.539 352.962 303.931 358.722 307.387 359.874C310.843 361.026 313.138 356.796 313.138 356.796C313.138 356.796 315.442 360.639 318.538 359.1C321.634 357.561 319.303 354.114 319.303 354.114C319.303 354.114 321.58 351 321.202 349.47ZM313.525 355.23C313.235 355.166 312.97 355.021 312.759 354.812C312.548 354.603 312.4 354.339 312.333 354.05C312.266 353.761 312.281 353.459 312.378 353.178C312.475 352.898 312.649 352.65 312.881 352.464C313.112 352.279 313.392 352.162 313.686 352.128C313.981 352.094 314.28 352.144 314.547 352.272C314.815 352.4 315.041 352.602 315.199 352.853C315.357 353.104 315.442 353.394 315.442 353.691C315.388 354.148 315.156 354.565 314.798 354.852C314.439 355.14 313.982 355.276 313.525 355.23ZM339.229 379.404C338.851 377.865 333.091 380.169 333.091 380.169C333.091 380.169 335.008 372.879 331.939 372.879C328.87 372.879 328.492 378.279 328.492 378.279C328.492 378.279 322.732 375.975 322.732 379.431C322.732 382.887 326.566 382.887 326.566 382.887C326.566 382.887 321.967 388.638 325.423 389.79C328.879 390.942 331.174 386.721 331.174 386.721C331.174 386.721 333.478 390.555 336.574 389.025C339.67 387.495 337.339 384.039 337.339 384.039C337.339 384.039 339.616 380.934 339.229 379.404ZM331.561 385.2C331.271 385.136 331.005 384.99 330.794 384.781C330.583 384.572 330.435 384.307 330.368 384.018C330.301 383.728 330.318 383.426 330.415 383.145C330.513 382.864 330.688 382.617 330.92 382.432C331.153 382.246 331.433 382.13 331.728 382.097C332.023 382.064 332.322 382.116 332.589 382.245C332.857 382.375 333.082 382.577 333.239 382.829C333.397 383.081 333.479 383.373 333.478 383.67C333.421 384.125 333.189 384.54 332.831 384.826C332.473 385.111 332.017 385.246 331.561 385.2ZM320.05 390.96C319.663 389.421 313.912 391.725 313.912 391.725C313.912 391.725 315.829 384.435 312.76 384.435C309.691 384.435 309.304 389.835 309.304 389.835C309.304 389.835 303.544 387.531 303.544 390.987C303.544 394.443 307.387 394.443 307.387 394.443C307.387 394.443 302.779 400.194 306.235 401.346C309.691 402.498 311.986 398.277 311.986 398.277C311.986 398.277 314.29 402.111 317.386 400.581C320.482 399.051 318.16 395.595 318.16 395.595C318.16 395.595 320.401 392.445 320.05 390.915V390.96ZM312.373 396.711C312.083 396.647 311.817 396.501 311.606 396.292C311.395 396.083 311.247 395.818 311.18 395.529C311.114 395.239 311.13 394.937 311.227 394.656C311.325 394.375 311.5 394.128 311.732 393.943C311.965 393.757 312.245 393.641 312.54 393.608C312.835 393.575 313.134 393.627 313.401 393.756C313.669 393.886 313.894 394.088 314.051 394.34C314.209 394.592 314.291 394.884 314.29 395.181C314.223 395.628 313.986 396.031 313.629 396.308C313.272 396.584 312.822 396.713 312.373 396.666V396.711ZM337.699 368.316H341.92C344.989 368.316 346.906 371.772 346.906 371.772C340.381 373.644 337.699 368.271 337.699 368.271V368.316ZM292.42 390.15H296.641C299.71 390.15 301.627 393.597 301.627 393.597C295.102 395.523 292.42 390.15 292.42 390.15ZM317.044 365.4L319.51 368.829C321.31 371.331 319.609 374.895 319.609 374.895C314.245 370.683 317.044 365.4 317.044 365.4ZM342.001 386.856L344.458 390.285C346.258 392.778 344.557 396.351 344.557 396.351C339.193 392.166 342.001 386.856 342.001 386.856ZM295.894 376.875L297.82 373.122C299.233 370.422 303.22 370.26 303.22 370.26C301.888 376.938 295.885 376.875 295.885 376.875H295.894Z" fill="#FCFCFC"/>
</svg>
