<svg width="61" height="61" viewBox="0 0 61 61" fill="none" xmlns="http://www.w3.org/2000/svg">
<path fill-rule="evenodd" clip-rule="evenodd" d="M4 14.7188C4 11.5604 6.56037 9 9.71875 9H51.6562C54.8146 9 57.375 11.5604 57.375 14.7188V45.2188C57.375 48.3771 54.8146 50.9375 51.6562 50.9375H9.71875C6.56037 50.9375 4 48.3771 4 45.2188V14.7188ZM7.8125 40.2896V45.2188C7.8125 46.2715 8.66596 47.125 9.71875 47.125H51.6562C52.709 47.125 53.5625 46.2715 53.5625 45.2188V40.2896L46.7271 33.4542C45.2382 31.9653 42.8243 31.9653 41.3354 33.4542L39.1021 35.6875L41.5667 38.1521C42.3111 38.8965 42.3111 40.1035 41.5667 40.8479C40.8222 41.5924 39.6153 41.5924 38.8708 40.8479L25.7583 27.7354C24.2695 26.2466 21.8555 26.2466 20.3667 27.7354L7.8125 40.2896ZM33.5469 20.4375C33.5469 18.8583 34.8271 17.5781 36.4062 17.5781C37.9854 17.5781 39.2656 18.8583 39.2656 20.4375C39.2656 22.0167 37.9854 23.2969 36.4062 23.2969C34.8271 23.2969 33.5469 22.0167 33.5469 20.4375Z" fill="#EE683E"/>
</svg>
