<svg width="24" height="24" viewBox="0 0 24 24" fill="none" xmlns="http://www.w3.org/2000/svg">
<path d="M7.21721 10.6571C6.83295 9.96691 6.096 9.5 5.25 9.5C4.00736 9.5 3 10.5074 3 11.75C3 12.9926 4.00736 14 5.25 14C6.096 14 6.83295 13.5331 7.21721 12.8429M7.21721 10.6571C7.39737 10.9807 7.5 11.3534 7.5 11.75C7.5 12.1466 7.39737 12.5193 7.21721 12.8429M7.21721 10.6571L16.7828 5.3429M7.21721 12.8429L16.7828 18.1571M16.7828 18.1571C16.6026 18.4807 16.5 18.8534 16.5 19.25C16.5 20.4926 17.5074 21.5 18.75 21.5C19.9926 21.5 21 20.4926 21 19.25C21 18.0074 19.9926 17 18.75 17C17.904 17 17.1671 17.4669 16.7828 18.1571ZM16.7828 5.3429C17.1671 6.03309 17.904 6.5 18.75 6.5C19.9926 6.5 21 5.49264 21 4.25C21 3.00736 19.9926 2 18.75 2C17.5074 2 16.5 3.00736 16.5 4.25C16.5 4.64664 16.6026 5.01931 16.7828 5.3429Z" stroke="#BEB9B4" stroke-width="1.2" stroke-linecap="round" stroke-linejoin="round"/>
</svg>
