<svg width="24" height="24" viewBox="0 0 24 24" fill="none" xmlns="http://www.w3.org/2000/svg">
<path fill-rule="evenodd" clip-rule="evenodd" d="M11.75 2C6.36522 2 2 6.36522 2 11.75C2 17.1348 6.36522 21.5 11.75 21.5C17.1348 21.5 21.5 17.1348 21.5 11.75C21.5 6.36522 17.1348 2 11.75 2ZM10.0303 8.96967C9.73744 8.67678 9.26256 8.67678 8.96967 8.96967C8.67678 9.26256 8.67678 9.73744 8.96967 10.0303L10.6893 11.75L8.96967 13.4697C8.67678 13.7626 8.67678 14.2374 8.96967 14.5303C9.26256 14.8232 9.73744 14.8232 10.0303 14.5303L11.75 12.8107L13.4697 14.5303C13.7626 14.8232 14.2374 14.8232 14.5303 14.5303C14.8232 14.2374 14.8232 13.7626 14.5303 13.4697L12.8107 11.75L14.5303 10.0303C14.8232 9.73744 14.8232 9.26256 14.5303 8.96967C14.2374 8.67678 13.7626 8.67678 13.4697 8.96967L11.75 10.6893L10.0303 8.96967Z" fill="#F03E3E"/>
</svg>
