<svg width="24" height="24" viewBox="0 0 24 24" fill="none" xmlns="http://www.w3.org/2000/svg">
<path fill-rule="evenodd" clip-rule="evenodd" d="M2 11.75C2 6.36522 6.36522 2 11.75 2C17.1348 2 21.5 6.36522 21.5 11.75C21.5 17.1348 17.1348 21.5 11.75 21.5C6.36522 21.5 2 17.1348 2 11.75ZM15.3603 9.93593C15.6011 9.59887 15.523 9.13046 15.1859 8.8897C14.8489 8.64894 14.3805 8.72701 14.1397 9.06407L10.9043 13.5936L9.28033 11.9697C8.98744 11.6768 8.51256 11.6768 8.21967 11.9697C7.92678 12.2626 7.92678 12.7374 8.21967 13.0303L10.4697 15.2803C10.6256 15.4362 10.8421 15.5156 11.0619 15.4974C11.2816 15.4793 11.4822 15.3653 11.6103 15.1859L15.3603 9.93593Z" fill="#20C997"/>
</svg>
